hintordertest_MmM.ufo
<glyph name="uni001E" format="2">
  <advance width="966"/>
  <unicode hex="001E"/>
  <outline>
    <contour>
      <point x="837" y="697" type="curve" smooth="yes"/>
      <point x="896" y="697"/>
      <point x="936" y="736"/>
      <point x="936" y="791" type="curve" smooth="yes"/>
      <point x="936" y="846"/>
      <point x="896" y="885"/>
      <point x="837" y="885" type="curve" smooth="yes"/>
      <point x="778" y="885"/>
      <point x="737" y="846"/>
      <point x="737" y="791" type="curve" smooth="yes"/>
      <point x="737" y="736"/>
      <point x="778" y="697"/>
    </contour>
    <contour>
      <point x="12" y="0" type="line"/>
      <point x="240" y="0" type="line"/>
      <point x="240" y="80" type="line"/>
      <point x="140" y="80" type="line"/>
      <point x="116" y="80" type="line"/>
      <point x="12" y="80" type="line"/>
    </contour>
    <contour>
      <point x="48" y="0" type="line"/>
      <point x="140" y="0" type="line"/>
      <point x="249" y="356" type="line"/>
      <point x="283" y="549" type="line"/>
      <point x="294" y="549" type="line"/>
      <point x="470" y="0" type="line"/>
      <point x="696" y="0" type="line"/>
      <point x="460" y="652" type="line"/>
      <point x="276" y="652" type="line"/>
    </contour>
    <contour>
      <point x="166" y="172" type="line"/>
      <point x="512" y="172" type="line"/>
      <point x="512" y="244" type="line"/>
      <point x="166" y="244" type="line"/>
    </contour>
    <contour>
      <point x="368" y="0" type="line"/>
      <point x="732" y="0" type="line"/>
      <point x="732" y="80" type="line"/>
      <point x="612" y="80" type="line"/>
      <point x="488" y="80" type="line"/>
      <point x="368" y="80" type="line"/>
    </contour>
  </outline>
</glyph>
<glyph name="uni001E" format="2">
  <advance width="1350"/>
  <unicode hex="001E"/>
  <outline>
    <contour>
      <point x="330" y="0" type="line"/>
      <point x="454" y="0" type="line"/>
      <point x="454" y="80" type="line"/>
      <point x="438" y="80" type="line"/>
      <point x="330" y="80" type="line"/>
    </contour>
    <contour>
      <point x="406" y="0" type="curve"/>
      <point x="622" y="0" type="line"/>
      <point x="622" y="95"/>
      <point x="622" y="189"/>
      <point x="622" y="284" type="curve" smooth="yes"/>
      <point x="622" y="368" type="line" smooth="yes"/>
      <point x="622" y="463"/>
      <point x="622" y="557"/>
      <point x="622" y="652" type="curve"/>
      <point x="406" y="652" type="line"/>
      <point x="406" y="557"/>
      <point x="406" y="463"/>
      <point x="406" y="368" type="curve" smooth="yes"/>
      <point x="406" y="284" type="line" smooth="yes"/>
      <point x="406" y="189"/>
      <point x="406" y="95"/>
    </contour>
    <contour>
      <point x="574" y="0" type="line"/>
      <point x="654" y="0" type="line" smooth="yes"/>
      <point x="898" y="0"/>
      <point x="1006" y="68"/>
      <point x="1006" y="188" type="curve" smooth="yes"/>
      <point x="1006" y="293"/>
      <point x="916" y="336"/>
      <point x="745" y="336" type="curve"/>
      <point x="745" y="360" type="line"/>
      <point x="886" y="360"/>
      <point x="970" y="414"/>
      <point x="970" y="504" type="curve" smooth="yes"/>
      <point x="970" y="600"/>
      <point x="866" y="652"/>
      <point x="662" y="652" type="curve" smooth="yes"/>
      <point x="574" y="652" type="line"/>
      <point x="574" y="576" type="line"/>
      <point x="654" y="576" type="line" smooth="yes"/>
      <point x="722" y="576"/>
      <point x="754" y="536"/>
      <point x="754" y="476" type="curve" smooth="yes"/>
      <point x="754" y="416"/>
      <point x="722" y="372"/>
      <point x="646" y="372" type="curve" smooth="yes"/>
      <point x="558" y="372" type="line"/>
      <point x="558" y="300" type="line"/>
      <point x="654" y="300" type="line" smooth="yes"/>
      <point x="746" y="300"/>
      <point x="786" y="260"/>
      <point x="786" y="188" type="curve" smooth="yes"/>
      <point x="786" y="116"/>
      <point x="746" y="76"/>
      <point x="646" y="76" type="curve" smooth="yes"/>
      <point x="574" y="76" type="line"/>
    </contour>
    <contour>
      <point x="1036" y="718" type="line"/>
      <point x="1336" y="718" type="line"/>
      <point x="1336" y="820" type="line"/>
      <point x="1036" y="820" type="line"/>
    </contour>
    <contour>
      <point x="330" y="572" type="line"/>
      <point x="438" y="572" type="line"/>
      <point x="454" y="572" type="line"/>
      <point x="454" y="652" type="line"/>
      <point x="330" y="652" type="line"/>
    </contour>
  </outline>
</glyph>
<glyph name="uni001E" format="2">
  <advance width="971"/>
  <unicode hex="001E"/>
  <outline>
    <contour>
      <point x="809" y="806" type="curve" smooth="yes"/>
      <point x="775" y="806"/>
      <point x="749" y="830"/>
      <point x="749" y="864" type="curve" smooth="yes"/>
      <point x="749" y="898"/>
      <point x="775" y="922"/>
      <point x="809" y="922" type="curve" smooth="yes"/>
      <point x="843" y="922"/>
      <point x="869" y="898"/>
      <point x="869" y="864" type="curve" smooth="yes"/>
      <point x="869" y="830"/>
      <point x="843" y="806"/>
    </contour>
    <contour>
      <point x="809" y="742" type="curve" smooth="yes"/>
      <point x="885" y="742"/>
      <point x="941" y="794"/>
      <point x="941" y="864" type="curve" smooth="yes"/>
      <point x="941" y="934"/>
      <point x="885" y="986"/>
      <point x="809" y="986" type="curve" smooth="yes"/>
      <point x="733" y="986"/>
      <point x="677" y="934"/>
      <point x="677" y="864" type="curve" smooth="yes"/>
      <point x="677" y="794"/>
      <point x="733" y="742"/>
    </contour>
    <contour>
      <point x="428" y="-16" type="curve" smooth="yes"/>
      <point x="540" y="-16"/>
      <point x="612" y="8"/>
      <point x="664" y="32" type="curve"/>
      <point x="672" y="192" type="line"/>
      <point x="584" y="192" type="line"/>
      <point x="532" y="48" type="line"/>
      <point x="612" y="48" type="line"/>
      <point x="612" y="112" type="line"/>
      <point x="564" y="80"/>
      <point x="524" y="64"/>
      <point x="468" y="64" type="curve" smooth="yes"/>
      <point x="348" y="64"/>
      <point x="268" y="152"/>
      <point x="268" y="328" type="curve" smooth="yes"/>
      <point x="268" y="504"/>
      <point x="356" y="588"/>
      <point x="464" y="588" type="curve" smooth="yes"/>
      <point x="524" y="588"/>
      <point x="564" y="572"/>
      <point x="608" y="540" type="curve"/>
      <point x="608" y="604" type="line"/>
      <point x="528" y="604" type="line"/>
      <point x="580" y="460" type="line"/>
      <point x="668" y="460" type="line"/>
      <point x="660" y="620" type="line"/>
      <point x="620" y="644"/>
      <point x="540" y="668"/>
      <point x="432" y="668" type="curve" smooth="yes"/>
      <point x="228" y="668"/>
      <point x="44" y="568"/>
      <point x="44" y="324" type="curve" smooth="yes"/>
      <point x="44" y="80"/>
      <point x="220" y="-16"/>
    </contour>
  </outline>
</glyph>
<glyph name="uni001E" format="2">
  <advance width="1335"/>
  <unicode hex="001E"/>
  <outline>
    <contour>
      <point x="1055" y="684" type="curve" smooth="yes"/>
      <point x="1105" y="684"/>
      <point x="1145" y="724"/>
      <point x="1145" y="774" type="curve" smooth="yes"/>
      <point x="1145" y="824"/>
      <point x="1105" y="864"/>
      <point x="1055" y="864" type="curve" smooth="yes"/>
      <point x="1005" y="864"/>
      <point x="965" y="824"/>
      <point x="965" y="774" type="curve" smooth="yes"/>
      <point x="965" y="724"/>
      <point x="1005" y="684"/>
    </contour>
    <contour>
      <point x="1297" y="684" type="curve" smooth="yes"/>
      <point x="1347" y="684"/>
      <point x="1387" y="724"/>
      <point x="1387" y="774" type="curve" smooth="yes"/>
      <point x="1387" y="824"/>
      <point x="1347" y="864"/>
      <point x="1297" y="864" type="curve" smooth="yes"/>
      <point x="1247" y="864"/>
      <point x="1207" y="824"/>
      <point x="1207" y="774" type="curve" smooth="yes"/>
      <point x="1207" y="724"/>
      <point x="1247" y="684"/>
    </contour>
    <contour>
      <point x="575" y="-154" type="curve" smooth="yes"/>
      <point x="671" y="-154"/>
      <point x="733" y="-121"/>
      <point x="779" y="-66" type="curve" smooth="yes"/>
      <point x="820" y="-17"/>
      <point x="859" y="30"/>
      <point x="859" y="206" type="curve" smooth="yes"/>
      <point x="859" y="366" type="line" smooth="yes"/>
      <point x="859" y="465"/>
      <point x="859" y="553"/>
      <point x="859" y="652" type="curve"/>
      <point x="643" y="652" type="line"/>
      <point x="643" y="477"/>
      <point x="643" y="325"/>
      <point x="643" y="152" type="curve" smooth="yes"/>
      <point x="643" y="14"/>
      <point x="654" y="-35"/>
      <point x="658" y="-108" type="curve"/>
      <point x="673" y="-98" type="line"/>
      <point x="611" y="-98" type="line"/>
      <point x="645" y="-114" type="line"/>
      <point x="624" y="-78" type="line" smooth="yes"/>
      <point x="593" y="-26"/>
      <point x="572" y="-13"/>
      <point x="527" y="-13" type="curve" smooth="yes"/>
      <point x="485" y="-13"/>
      <point x="457" y="-42"/>
      <point x="452" y="-83" type="curve"/>
      <point x="458" y="-130"/>
      <point x="510" y="-154"/>
    </contour>
    <contour>
      <point x="559" y="572" type="line"/>
      <point x="691" y="572" type="line"/>
      <point x="811" y="572" type="line"/>
      <point x="935" y="572" type="line"/>
      <point x="935" y="652" type="line"/>
      <point x="559" y="652" type="line"/>
    </contour>
  </outline>
</glyph>
<glyph name="uni001E" format="2">
  <advance width="1219"/>
  <unicode hex="001E"/>
  <outline>
    <contour>
      <point x="28" y="0" type="line"/>
      <point x="260" y="0" type="line"/>
      <point x="260" y="80" type="line"/>
      <point x="168" y="80" type="line"/>
      <point x="120" y="80" type="line"/>
      <point x="28" y="80" type="line"/>
    </contour>
    <contour>
      <point x="38" y="572" type="line"/>
      <point x="120" y="572" type="line"/>
      <point x="136" y="572" type="line"/>
      <point x="136" y="652" type="line"/>
      <point x="38" y="652" type="line"/>
    </contour>
    <contour>
      <point x="1057" y="788" type="curve" smooth="yes"/>
      <point x="1023" y="788"/>
      <point x="997" y="812"/>
      <point x="997" y="846" type="curve" smooth="yes"/>
      <point x="997" y="880"/>
      <point x="1023" y="904"/>
      <point x="1057" y="904" type="curve" smooth="yes"/>
      <point x="1091" y="904"/>
      <point x="1117" y="880"/>
      <point x="1117" y="846" type="curve" smooth="yes"/>
      <point x="1117" y="812"/>
      <point x="1091" y="788"/>
    </contour>
    <contour>
      <point x="1057" y="724" type="curve" smooth="yes"/>
      <point x="1133" y="724"/>
      <point x="1189" y="776"/>
      <point x="1189" y="846" type="curve" smooth="yes"/>
      <point x="1189" y="916"/>
      <point x="1133" y="968"/>
      <point x="1057" y="968" type="curve" smooth="yes"/>
      <point x="981" y="968"/>
      <point x="925" y="916"/>
      <point x="925" y="846" type="curve" smooth="yes"/>
      <point x="925" y="776"/>
      <point x="981" y="724"/>
    </contour>
    <contour>
      <point x="104" y="0" type="line"/>
      <point x="188" y="0" type="line"/>
      <point x="188" y="280" type="line"/>
      <point x="162" y="652" type="line"/>
      <point x="104" y="652" type="line"/>
    </contour>
    <contour>
      <point x="350" y="0" type="line"/>
      <point x="462" y="0" type="line"/>
      <point x="569" y="343" type="line"/>
      <point x="619" y="543" type="line"/>
      <point x="686" y="543" type="line"/>
      <point x="686" y="652" type="line"/>
      <point x="588" y="652" type="line"/>
      <point x="532" y="465" type="line"/>
      <point x="480" y="244" type="line"/>
      <point x="465" y="244" type="line"/>
      <point x="352" y="652" type="line"/>
      <point x="136" y="652" type="line"/>
      <point x="136" y="539" type="line"/>
      <point x="188" y="539" type="line"/>
    </contour>
    <contour>
      <point x="564" y="0" type="line"/>
      <point x="920" y="0" type="line"/>
      <point x="920" y="80" type="line"/>
      <point x="812" y="80" type="line"/>
      <point x="652" y="80" type="line"/>
      <point x="564" y="80" type="line"/>
    </contour>
    <contour>
      <point x="636" y="0" type="curve"/>
      <point x="844" y="0" type="line"/>
      <point x="844" y="95"/>
      <point x="844" y="189"/>
      <point x="844" y="284" type="curve" smooth="yes"/>
      <point x="844" y="368" type="line" smooth="yes"/>
      <point x="844" y="463"/>
      <point x="844" y="557"/>
      <point x="844" y="652" type="curve"/>
      <point x="635" y="652" type="line"/>
      <point x="635" y="280" type="line" smooth="yes"/>
      <point x="635" y="187"/>
      <point x="636" y="93"/>
    </contour>
    <contour>
      <point x="796" y="572" type="line"/>
      <point x="812" y="572" type="line"/>
      <point x="920" y="572" type="line"/>
      <point x="920" y="652" type="line"/>
      <point x="796" y="652" type="line"/>
    </contour>
  </outline>
</glyph>
<glyph name="uni001E" format="2">
  <advance width="1114"/>
  <unicode hex="001E"/>
  <outline>
    <contour>
      <point x="174" y="0" type="line"/>
      <point x="426" y="0" type="line"/>
      <point x="426" y="80" type="line"/>
      <point x="318" y="80" type="line"/>
      <point x="266" y="80" type="line"/>
      <point x="174" y="80" type="line"/>
    </contour>
    <contour>
      <point x="250" y="0" type="line"/>
      <point x="332" y="0" type="line"/>
      <point x="332" y="264" type="line"/>
      <point x="306" y="609" type="line"/>
      <point x="250" y="609" type="line"/>
    </contour>
    <contour>
      <point x="618" y="572" type="line"/>
      <point x="726" y="572" type="line"/>
      <point x="778" y="572" type="line"/>
      <point x="870" y="572" type="line"/>
      <point x="870" y="652" type="line"/>
      <point x="618" y="652" type="line"/>
    </contour>
    <contour>
      <point x="974" y="657" type="line"/>
      <point x="1086" y="657" type="line"/>
      <point x="1102" y="861" type="line"/>
      <point x="958" y="861" type="line"/>
    </contour>
    <contour>
      <point x="626" y="0" type="line"/>
      <point x="794" y="0" type="line"/>
      <point x="794" y="652" type="line"/>
      <point x="714" y="652" type="line"/>
      <point x="714" y="417" type="line"/>
      <point x="734" y="193" type="line"/>
      <point x="720" y="193" type="line"/>
      <point x="466" y="652" type="line"/>
      <point x="184" y="652" type="line"/>
      <point x="184" y="572" type="line"/>
      <point x="275" y="572" type="line"/>
      <point x="275" y="539" type="line"/>
      <point x="324" y="539" type="line"/>
    </contour>
  </outline>
</glyph>
<glyph name="uni001E" format="2">
  <advance width="1213"/>
  <unicode hex="001E"/>
  <outline>
    <contour>
      <point x="851" y="713" type="curve" smooth="yes"/>
      <point x="901" y="713"/>
      <point x="941" y="753"/>
      <point x="941" y="803" type="curve" smooth="yes"/>
      <point x="941" y="853"/>
      <point x="901" y="893"/>
      <point x="851" y="893" type="curve" smooth="yes"/>
      <point x="801" y="893"/>
      <point x="761" y="853"/>
      <point x="761" y="803" type="curve" smooth="yes"/>
      <point x="761" y="753"/>
      <point x="801" y="713"/>
    </contour>
    <contour>
      <point x="1093" y="713" type="curve" smooth="yes"/>
      <point x="1143" y="713"/>
      <point x="1183" y="753"/>
      <point x="1183" y="803" type="curve" smooth="yes"/>
      <point x="1183" y="853"/>
      <point x="1143" y="893"/>
      <point x="1093" y="893" type="curve" smooth="yes"/>
      <point x="1043" y="893"/>
      <point x="1003" y="853"/>
      <point x="1003" y="803" type="curve" smooth="yes"/>
      <point x="1003" y="753"/>
      <point x="1043" y="713"/>
    </contour>
    <contour>
      <point x="400" y="-16" type="curve" smooth="yes"/>
      <point x="580" y="-16"/>
      <point x="756" y="92"/>
      <point x="756" y="328" type="curve" smooth="yes"/>
      <point x="756" y="564"/>
      <point x="580" y="668"/>
      <point x="400" y="668" type="curve" smooth="yes"/>
      <point x="220" y="668"/>
      <point x="44" y="560"/>
      <point x="44" y="324" type="curve" smooth="yes"/>
      <point x="44" y="88"/>
      <point x="220" y="-16"/>
    </contour>
    <contour>
      <point x="400" y="64" type="curve" smooth="yes"/>
      <point x="308" y="64"/>
      <point x="268" y="168"/>
      <point x="268" y="328" type="curve" smooth="yes"/>
      <point x="268" y="488"/>
      <point x="308" y="588"/>
      <point x="400" y="588" type="curve" smooth="yes"/>
      <point x="492" y="588"/>
      <point x="532" y="484"/>
      <point x="532" y="324" type="curve" smooth="yes"/>
      <point x="532" y="164"/>
      <point x="492" y="64"/>
    </contour>
  </outline>
</glyph>
<glyph name="uni001E" format="2">
  <advance width="1119"/>
  <unicode hex="001E"/>
  <outline>
    <contour>
      <point x="1010" y="795" type="curve" smooth="yes"/>
      <point x="976" y="795"/>
      <point x="950" y="819"/>
      <point x="950" y="853" type="curve" smooth="yes"/>
      <point x="950" y="887"/>
      <point x="976" y="911"/>
      <point x="1010" y="911" type="curve" smooth="yes"/>
      <point x="1044" y="911"/>
      <point x="1070" y="887"/>
      <point x="1070" y="853" type="curve" smooth="yes"/>
      <point x="1070" y="819"/>
      <point x="1044" y="795"/>
    </contour>
    <contour>
      <point x="1010" y="731" type="curve" smooth="yes"/>
      <point x="1086" y="731"/>
      <point x="1142" y="783"/>
      <point x="1142" y="853" type="curve" smooth="yes"/>
      <point x="1142" y="923"/>
      <point x="1086" y="975"/>
      <point x="1010" y="975" type="curve" smooth="yes"/>
      <point x="934" y="975"/>
      <point x="878" y="923"/>
      <point x="878" y="853" type="curve" smooth="yes"/>
      <point x="878" y="783"/>
      <point x="934" y="731"/>
    </contour>
    <contour>
      <point x="540" y="-16" type="curve" smooth="yes"/>
      <point x="720" y="-16"/>
      <point x="848" y="60"/>
      <point x="848" y="200" type="curve" smooth="yes"/>
      <point x="848" y="324"/>
      <point x="756" y="376"/>
      <point x="624" y="426" type="curve" smooth="yes"/>
      <point x="608" y="432" type="line" smooth="yes"/>
      <point x="528" y="462"/>
      <point x="500" y="484"/>
      <point x="500" y="526" type="curve" smooth="yes"/>
      <point x="500" y="568"/>
      <point x="532" y="596"/>
      <point x="600" y="596" type="curve" smooth="yes"/>
      <point x="668" y="596"/>
      <point x="708" y="580"/>
      <point x="748" y="560" type="curve"/>
      <point x="748" y="616" type="line"/>
      <point x="678" y="616" type="line"/>
      <point x="712" y="472" type="line"/>
      <point x="796" y="472" type="line"/>
      <point x="796" y="632" type="line"/>
      <point x="756" y="648"/>
      <point x="684" y="668"/>
      <point x="584" y="668" type="curve" smooth="yes"/>
      <point x="436" y="668"/>
      <point x="308" y="600"/>
      <point x="308" y="462" type="curve" smooth="yes"/>
      <point x="308" y="340"/>
      <point x="400" y="288"/>
      <point x="532" y="238" type="curve" smooth="yes"/>
      <point x="548" y="232" type="line" smooth="yes"/>
      <point x="628" y="202"/>
      <point x="656" y="184"/>
      <point x="656" y="138" type="curve" smooth="yes"/>
      <point x="656" y="92"/>
      <point x="624" y="60"/>
      <point x="532" y="60" type="curve" smooth="yes"/>
      <point x="460" y="60"/>
      <point x="404" y="76"/>
      <point x="364" y="100" type="curve"/>
      <point x="364" y="40" type="line"/>
      <point x="430" y="40" type="line"/>
      <point x="396" y="192" type="line"/>
      <point x="308" y="192" type="line"/>
      <point x="308" y="24" type="line"/>
      <point x="364" y="0"/>
      <point x="452" y="-16"/>
    </contour>
  </outline>
</glyph>
<glyph name="uni001E" format="2">
  <advance width="966"/>
  <unicode hex="001E"/>
  <outline>
    <contour>
      <point x="837" y="697" type="curve" smooth="yes"/>
      <point x="896" y="697"/>
      <point x="936" y="736"/>
      <point x="936" y="791" type="curve" smooth="yes"/>
      <point x="936" y="846"/>
      <point x="896" y="885"/>
      <point x="837" y="885" type="curve" smooth="yes"/>
      <point x="778" y="885"/>
      <point x="737" y="846"/>
      <point x="737" y="791" type="curve" smooth="yes"/>
      <point x="737" y="736"/>
      <point x="778" y="697"/>
    </contour>
    <contour>
      <point x="294" y="0" type="line"/>
      <point x="472" y="0" type="line"/>
      <point x="696" y="652" type="line"/>
      <point x="604" y="652" type="line"/>
      <point x="524" y="393" type="line"/>
      <point x="459" y="99" type="line"/>
      <point x="444" y="99" type="line"/>
      <point x="274" y="652" type="line"/>
      <point x="48" y="652" type="line"/>
    </contour>
    <contour>
      <point x="17" y="572" type="line"/>
      <point x="124" y="572" type="line"/>
      <point x="248" y="572" type="line"/>
      <point x="380" y="572" type="line"/>
      <point x="380" y="652" type="line"/>
      <point x="17" y="652" type="line"/>
    </contour>
    <contour>
      <point x="500" y="572" type="line"/>
      <point x="596" y="572" type="line"/>
      <point x="640" y="572" type="line"/>
      <point x="732" y="572" type="line"/>
      <point x="732" y="652" type="line"/>
      <point x="500" y="652" type="line"/>
    </contour>
  </outline>
</glyph>
<glyph name="uni001E" format="2">
  <advance width="1011"/>
  <unicode hex="001E"/>
  <outline>
    <contour>
      <point x="12" y="0" type="line"/>
      <point x="252" y="0" type="line"/>
      <point x="252" y="80" type="line"/>
      <point x="156" y="80" type="line"/>
      <point x="132" y="80" type="line"/>
      <point x="12" y="80" type="line"/>
    </contour>
    <contour>
      <point x="849" y="788" type="curve" smooth="yes"/>
      <point x="815" y="788"/>
      <point x="789" y="812"/>
      <point x="789" y="846" type="curve" smooth="yes"/>
      <point x="789" y="880"/>
      <point x="815" y="904"/>
      <point x="849" y="904" type="curve" smooth="yes"/>
      <point x="883" y="904"/>
      <point x="909" y="880"/>
      <point x="909" y="846" type="curve" smooth="yes"/>
      <point x="909" y="812"/>
      <point x="883" y="788"/>
    </contour>
    <contour>
      <point x="849" y="724" type="curve" smooth="yes"/>
      <point x="925" y="724"/>
      <point x="981" y="776"/>
      <point x="981" y="846" type="curve" smooth="yes"/>
      <point x="981" y="916"/>
      <point x="925" y="968"/>
      <point x="849" y="968" type="curve" smooth="yes"/>
      <point x="773" y="968"/>
      <point x="717" y="916"/>
      <point x="717" y="846" type="curve" smooth="yes"/>
      <point x="717" y="776"/>
      <point x="773" y="724"/>
    </contour>
    <contour>
      <point x="24" y="0" type="line"/>
      <point x="124" y="0" type="line"/>
      <point x="223" y="163" type="line"/>
      <point x="265" y="279" type="line"/>
      <point x="333" y="279" type="line"/>
      <point x="268" y="348" type="line"/>
    </contour>
    <contour>
      <point x="340" y="0" type="line"/>
      <point x="712" y="0" type="line"/>
      <point x="712" y="80" type="line"/>
      <point x="588" y="80" type="line"/>
      <point x="456" y="80" type="line"/>
      <point x="340" y="80" type="line"/>
    </contour>
    <contour>
      <point x="424" y="304" type="line"/>
      <point x="668" y="652" type="line"/>
      <point x="569" y="652" type="line"/>
      <point x="484" y="511" type="line"/>
      <point x="444" y="397" type="line"/>
      <point x="365" y="397" type="line"/>
    </contour>
    <contour>
      <point x="464" y="0" type="line"/>
      <point x="696" y="0" type="line"/>
      <point x="260" y="652" type="line"/>
      <point x="28" y="652" type="line"/>
    </contour>
    <contour>
      <point x="12" y="572" type="line"/>
      <point x="128" y="572" type="line"/>
      <point x="264" y="572" type="line"/>
      <point x="380" y="572" type="line"/>
      <point x="380" y="652" type="line"/>
      <point x="12" y="652" type="line"/>
    </contour>
    <contour>
      <point x="444" y="572" type="line"/>
      <point x="536" y="572" type="line"/>
      <point x="568" y="572" type="line"/>
      <point x="680" y="572" type="line"/>
      <point x="680" y="652" type="line"/>
      <point x="444" y="652" type="line"/>
    </contour>
  </outline>
</glyph>
<glyph name="uni001E" format="2">
  <advance width="1076"/>
  <unicode hex="001E"/>
  <outline>
    <contour>
      <point x="326" y="0" type="line"/>
      <point x="710" y="0" type="line"/>
      <point x="710" y="80" type="line"/>
      <point x="578" y="80" type="line"/>
      <point x="458" y="80" type="line"/>
      <point x="326" y="80" type="line"/>
    </contour>
    <contour>
      <point x="410" y="0" type="curve"/>
      <point x="626" y="0" type="line"/>
      <point x="626" y="104"/>
      <point x="626" y="208"/>
      <point x="626" y="312" type="curve"/>
      <point x="410" y="312" type="line"/>
      <point x="410" y="208"/>
      <point x="410" y="104"/>
    </contour>
    <contour>
      <point x="944" y="657" type="line"/>
      <point x="1056" y="657" type="line"/>
      <point x="1072" y="861" type="line"/>
      <point x="928" y="861" type="line"/>
    </contour>
    <contour>
      <point x="425" y="209" type="line"/>
      <point x="612" y="209" type="line"/>
      <point x="842" y="652" type="line"/>
      <point x="742" y="652" type="line"/>
      <point x="661" y="475" type="line"/>
      <point x="602" y="303" type="line"/>
      <point x="591" y="303" type="line"/>
      <point x="442" y="652" type="line"/>
      <point x="194" y="652" type="line"/>
    </contour>
    <contour>
      <point x="174" y="572" type="line"/>
      <point x="286" y="572" type="line"/>
      <point x="434" y="572" type="line"/>
      <point x="558" y="572" type="line"/>
      <point x="558" y="652" type="line"/>
      <point x="174" y="652" type="line"/>
    </contour>
    <contour>
      <point x="626" y="572" type="line"/>
      <point x="734" y="572" type="line"/>
      <point x="762" y="572" type="line"/>
      <point x="862" y="572" type="line"/>
      <point x="862" y="652" type="line"/>
      <point x="626" y="652" type="line"/>
    </contour>
  </outline>
</glyph>
<glyph name="uni001E" format="2">
  <advance width="1077"/>
  <unicode hex="001E"/>
  <outline>
    <contour>
      <point x="715" y="697" type="curve" smooth="yes"/>
      <point x="765" y="697"/>
      <point x="805" y="737"/>
      <point x="805" y="787" type="curve" smooth="yes"/>
      <point x="805" y="837"/>
      <point x="765" y="877"/>
      <point x="715" y="877" type="curve" smooth="yes"/>
      <point x="665" y="877"/>
      <point x="625" y="837"/>
      <point x="625" y="787" type="curve" smooth="yes"/>
      <point x="625" y="737"/>
      <point x="665" y="697"/>
    </contour>
    <contour>
      <point x="957" y="697" type="curve" smooth="yes"/>
      <point x="1007" y="697"/>
      <point x="1047" y="737"/>
      <point x="1047" y="787" type="curve" smooth="yes"/>
      <point x="1047" y="837"/>
      <point x="1007" y="877"/>
      <point x="957" y="877" type="curve" smooth="yes"/>
      <point x="907" y="877"/>
      <point x="867" y="837"/>
      <point x="867" y="787" type="curve" smooth="yes"/>
      <point x="867" y="737"/>
      <point x="907" y="697"/>
    </contour>
    <contour>
      <point x="28" y="0" type="line"/>
      <point x="616" y="0" type="line"/>
      <point x="620" y="204" type="line"/>
      <point x="536" y="204" type="line"/>
      <point x="490" y="28" type="line"/>
      <point x="548" y="72" type="line"/>
      <point x="372" y="72" type="line"/>
      <point x="256" y="55" type="line"/>
      <point x="256" y="105" type="line"/>
      <point x="239" y="50" type="line"/>
      <point x="608" y="588" type="line"/>
      <point x="608" y="652" type="line"/>
      <point x="44" y="652" type="line"/>
      <point x="40" y="448" type="line"/>
      <point x="124" y="448" type="line"/>
      <point x="170" y="624" type="line"/>
      <point x="112" y="580" type="line"/>
      <point x="256" y="580" type="line"/>
      <point x="379" y="597" type="line"/>
      <point x="379" y="547" type="line"/>
      <point x="396" y="602" type="line"/>
      <point x="28" y="64" type="line"/>
    </contour>
  </outline>
</glyph>
<glyph name="uni001E" format="2">
  <advance width="1373"/>
  <unicode hex="001E"/>
  <outline>
    <contour>
      <point x="1093" y="537" type="curve" smooth="yes"/>
      <point x="1143" y="537"/>
      <point x="1183" y="577"/>
      <point x="1183" y="627" type="curve" smooth="yes"/>
      <point x="1183" y="677"/>
      <point x="1143" y="717"/>
      <point x="1093" y="717" type="curve" smooth="yes"/>
      <point x="1043" y="717"/>
      <point x="1003" y="677"/>
      <point x="1003" y="627" type="curve" smooth="yes"/>
      <point x="1003" y="577"/>
      <point x="1043" y="537"/>
    </contour>
    <contour>
      <point x="1335" y="537" type="curve" smooth="yes"/>
      <point x="1385" y="537"/>
      <point x="1425" y="577"/>
      <point x="1425" y="627" type="curve" smooth="yes"/>
      <point x="1425" y="677"/>
      <point x="1385" y="717"/>
      <point x="1335" y="717" type="curve" smooth="yes"/>
      <point x="1285" y="717"/>
      <point x="1245" y="677"/>
      <point x="1245" y="627" type="curve" smooth="yes"/>
      <point x="1245" y="577"/>
      <point x="1285" y="537"/>
    </contour>
    <contour>
      <point x="742" y="-16" type="curve" smooth="yes"/>
      <point x="861" y="-16"/>
      <point x="931" y="38"/>
      <point x="973" y="106" type="curve"/>
      <point x="920" y="146" type="line"/>
      <point x="890" y="112"/>
      <point x="856" y="96"/>
      <point x="802" y="96" type="curve" smooth="yes"/>
      <point x="717" y="96"/>
      <point x="656" y="155"/>
      <point x="656" y="285" type="curve" smooth="yes"/>
      <point x="656" y="422"/>
      <point x="676" y="465"/>
      <point x="732" y="465" type="curve" smooth="yes"/>
      <point x="770" y="465"/>
      <point x="792" y="422"/>
      <point x="792" y="371" type="curve" smooth="yes"/>
      <point x="792" y="340"/>
      <point x="791" y="327"/>
      <point x="789" y="296" type="curve"/>
      <point x="624" y="296" type="line"/>
      <point x="624" y="240" type="line"/>
      <point x="961" y="240" type="line"/>
      <point x="966" y="264"/>
      <point x="968" y="280"/>
      <point x="968" y="312" type="curve" smooth="yes"/>
      <point x="968" y="449"/>
      <point x="873" y="532"/>
      <point x="733" y="532" type="curve" smooth="yes"/>
      <point x="572" y="532"/>
      <point x="452" y="428"/>
      <point x="452" y="256" type="curve" smooth="yes"/>
      <point x="452" y="84"/>
      <point x="568" y="-16"/>
    </contour>
  </outline>
</glyph>
<glyph name="uni001E" format="2">
  <advance width="991"/>
  <unicode hex="001E"/>
  <outline>
    <contour>
      <point x="24" y="0" type="line"/>
      <point x="332" y="0" type="line"/>
      <point x="332" y="76" type="line"/>
      <point x="240" y="76" type="line"/>
      <point x="132" y="76" type="line"/>
      <point x="24" y="76" type="line"/>
    </contour>
    <contour>
      <point x="84" y="0" type="curve"/>
      <point x="288" y="0" type="line"/>
      <point x="288" y="73"/>
      <point x="288" y="147"/>
      <point x="288" y="220" type="curve" smooth="yes"/>
      <point x="288" y="397" type="line"/>
      <point x="286" y="397" type="line"/>
      <point x="288" y="566" type="line"/>
      <point x="288" y="710" type="line"/>
      <point x="224" y="710" type="line"/>
      <point x="20" y="674" type="line"/>
      <point x="20" y="614" type="line"/>
      <point x="84" y="594" type="line"/>
      <point x="84" y="220" type="line" smooth="yes"/>
      <point x="84" y="147"/>
      <point x="84" y="73"/>
    </contour>
    <contour>
      <point x="829" y="856" type="curve" smooth="yes"/>
      <point x="795" y="856"/>
      <point x="769" y="880"/>
      <point x="769" y="914" type="curve" smooth="yes"/>
      <point x="769" y="948"/>
      <point x="795" y="972"/>
      <point x="829" y="972" type="curve" smooth="yes"/>
      <point x="863" y="972"/>
      <point x="889" y="948"/>
      <point x="889" y="914" type="curve" smooth="yes"/>
      <point x="889" y="880"/>
      <point x="863" y="856"/>
    </contour>
    <contour>
      <point x="829" y="792" type="curve" smooth="yes"/>
      <point x="905" y="792"/>
      <point x="961" y="844"/>
      <point x="961" y="914" type="curve" smooth="yes"/>
      <point x="961" y="984"/>
      <point x="905" y="1036"/>
      <point x="829" y="1036" type="curve" smooth="yes"/>
      <point x="753" y="1036"/>
      <point x="697" y="984"/>
      <point x="697" y="914" type="curve" smooth="yes"/>
      <point x="697" y="844"/>
      <point x="753" y="792"/>
    </contour>
    <contour>
      <point x="384" y="0" type="line"/>
      <point x="692" y="0" type="line"/>
      <point x="692" y="76" type="line"/>
      <point x="584" y="76" type="line"/>
      <point x="476" y="76" type="line"/>
      <point x="384" y="76" type="line"/>
    </contour>
    <contour>
      <point x="428" y="0" type="curve"/>
      <point x="632" y="0" type="line"/>
      <point x="632" y="74"/>
      <point x="632" y="147"/>
      <point x="632" y="221" type="curve" smooth="yes"/>
      <point x="632" y="352" type="line" smooth="yes"/>
      <point x="632" y="468"/>
      <point x="576" y="532"/>
      <point x="476" y="532" type="curve" smooth="yes"/>
      <point x="384" y="532"/>
      <point x="344" y="468"/>
      <point x="320" y="420" type="curve"/>
      <point x="256" y="420" type="line"/>
      <point x="256" y="348" type="line"/>
      <point x="296" y="376"/>
      <point x="328" y="388"/>
      <point x="364" y="388" type="curve" smooth="yes"/>
      <point x="408" y="388"/>
      <point x="428" y="368"/>
      <point x="428" y="320" type="curve" smooth="yes"/>
      <point x="428" y="221" type="line" smooth="yes"/>
      <point x="428" y="147"/>
      <point x="428" y="74"/>
    </contour>
  </outline>
</glyph>
<glyph name="uni001E" format="2">
  <advance width="724"/>
  <unicode hex="001E"/>
  <outline>
    <contour>
      <point x="178" y="0" type="line"/>
      <point x="502" y="0" type="line"/>
      <point x="502" y="76" type="line"/>
      <point x="394" y="76" type="line"/>
      <point x="286" y="76" type="line"/>
      <point x="178" y="76" type="line"/>
    </contour>
    <contour>
      <point x="238" y="0" type="curve"/>
      <point x="442" y="0" type="line"/>
      <point x="442" y="73"/>
      <point x="442" y="147"/>
      <point x="442" y="220" type="curve" smooth="yes"/>
      <point x="442" y="370" type="line"/>
      <point x="442" y="516" type="line"/>
      <point x="378" y="516" type="line"/>
      <point x="174" y="456" type="line"/>
      <point x="174" y="384" type="line"/>
      <point x="238" y="384" type="line"/>
      <point x="238" y="348"/>
      <point x="238" y="312"/>
      <point x="238" y="276" type="curve" smooth="yes"/>
      <point x="238" y="220" type="line" smooth="yes"/>
      <point x="238" y="147"/>
      <point x="238" y="73"/>
    </contour>
    <contour>
      <point x="584" y="767" type="line"/>
      <point x="696" y="767" type="line"/>
      <point x="712" y="971" type="line"/>
      <point x="568" y="971" type="line"/>
    </contour>
    <contour>
      <point x="338" y="574" type="curve" smooth="yes"/>
      <point x="397" y="574"/>
      <point x="437" y="613"/>
      <point x="437" y="668" type="curve" smooth="yes"/>
      <point x="437" y="723"/>
      <point x="397" y="762"/>
      <point x="338" y="762" type="curve" smooth="yes"/>
      <point x="279" y="762"/>
      <point x="238" y="723"/>
      <point x="238" y="668" type="curve" smooth="yes"/>
      <point x="238" y="613"/>
      <point x="279" y="574"/>
    </contour>
  </outline>
</glyph>
<glyph name="uni001E" format="2">
  <advance width="1300"/>
  <unicode hex="001E"/>
  <outline>
    <contour>
      <point x="606" y="-220" type="line"/>
      <point x="954" y="-220" type="line"/>
      <point x="954" y="-144" type="line"/>
      <point x="846" y="-144" type="line"/>
      <point x="738" y="-144" type="line"/>
      <point x="606" y="-144" type="line"/>
    </contour>
    <contour>
      <point x="522" y="-16" type="curve" smooth="yes"/>
      <point x="610" y="-16"/>
      <point x="642" y="39"/>
      <point x="662" y="87" type="curve"/>
      <point x="722" y="87" type="line"/>
      <point x="722" y="148" type="line"/>
      <point x="696" y="129"/>
      <point x="669" y="116"/>
      <point x="630" y="116" type="curve" smooth="yes"/>
      <point x="570" y="116"/>
      <point x="538" y="156"/>
      <point x="538" y="260" type="curve" smooth="yes"/>
      <point x="538" y="364"/>
      <point x="570" y="404"/>
      <point x="630" y="404" type="curve" smooth="yes"/>
      <point x="670" y="404"/>
      <point x="693" y="393"/>
      <point x="722" y="371" type="curve"/>
      <point x="722" y="432" type="line"/>
      <point x="678" y="432" type="line"/>
      <point x="657" y="482"/>
      <point x="618" y="532"/>
      <point x="530" y="532" type="curve" smooth="yes"/>
      <point x="410" y="532"/>
      <point x="330" y="431"/>
      <point x="330" y="256" type="curve" smooth="yes"/>
      <point x="330" y="84"/>
      <point x="410" y="-16"/>
    </contour>
    <contour>
      <point x="984" y="542" type="line"/>
      <point x="1284" y="542" type="line"/>
      <point x="1284" y="644" type="line"/>
      <point x="984" y="644" type="line"/>
    </contour>
    <contour>
      <point x="690" y="-220" type="curve"/>
      <point x="894" y="-220" type="line"/>
      <point x="894" y="-144"/>
      <point x="894" y="-68"/>
      <point x="894" y="8" type="curve" smooth="yes"/>
      <point x="894" y="384" type="line"/>
      <point x="894" y="524" type="line"/>
      <point x="810" y="524" type="line"/>
      <point x="698" y="416" type="line"/>
      <point x="690" y="416" type="line"/>
      <point x="690" y="96" type="line"/>
      <point x="698" y="96" type="line"/>
      <point x="690" y="-16" type="line"/>
      <point x="690" y="-84"/>
      <point x="690" y="-152"/>
    </contour>
  </outline>
</glyph>
<glyph name="uni001E" format="2">
  <advance width="852"/>
  <unicode hex="001E"/>
  <outline>
    <contour>
      <point x="718" y="537" type="line"/>
      <point x="830" y="537" type="line"/>
      <point x="846" y="741" type="line"/>
      <point x="702" y="741" type="line"/>
    </contour>
    <contour>
      <point x="380" y="-16" type="curve" smooth="yes"/>
      <point x="536" y="-16"/>
      <point x="636" y="54"/>
      <point x="636" y="168" type="curve" smooth="yes"/>
      <point x="636" y="268"/>
      <point x="564" y="312"/>
      <point x="472" y="340" type="curve" smooth="yes"/>
      <point x="446" y="348" type="line" smooth="yes"/>
      <point x="380" y="368"/>
      <point x="356" y="382"/>
      <point x="356" y="412" type="curve" smooth="yes"/>
      <point x="356" y="445"/>
      <point x="380" y="464"/>
      <point x="432" y="464" type="curve" smooth="yes"/>
      <point x="464" y="464"/>
      <point x="501" y="460"/>
      <point x="528" y="455" type="curve"/>
      <point x="528" y="508" type="line"/>
      <point x="488" y="508" type="line"/>
      <point x="499" y="386" type="line"/>
      <point x="593" y="386" type="line"/>
      <point x="604" y="496" type="line"/>
      <point x="551" y="516"/>
      <point x="488" y="532"/>
      <point x="424" y="532" type="curve" smooth="yes"/>
      <point x="272" y="532"/>
      <point x="180" y="462"/>
      <point x="180" y="352" type="curve" smooth="yes"/>
      <point x="180" y="252"/>
      <point x="256" y="212"/>
      <point x="340" y="184" type="curve"/>
      <point x="366" y="176" type="line" smooth="yes"/>
      <point x="432" y="156"/>
      <point x="456" y="140"/>
      <point x="456" y="110" type="curve" smooth="yes"/>
      <point x="456" y="78"/>
      <point x="432" y="52"/>
      <point x="372" y="52" type="curve" smooth="yes"/>
      <point x="324" y="52"/>
      <point x="284" y="57"/>
      <point x="256" y="63" type="curve"/>
      <point x="256" y="24" type="line"/>
      <point x="299" y="28" type="line"/>
      <point x="284" y="138" type="line"/>
      <point x="190" y="138" type="line"/>
      <point x="184" y="20" type="line"/>
      <point x="225" y="4"/>
      <point x="300" y="-16"/>
    </contour>
  </outline>
</glyph>
<glyph name="uni001E" format="2">
  <advance width="1500"/>
  <unicode hex="001E"/>
  <outline>
    <contour>
      <point x="1402" y="585" type="curve" smooth="yes"/>
      <point x="1368" y="585"/>
      <point x="1342" y="609"/>
      <point x="1342" y="643" type="curve" smooth="yes"/>
      <point x="1342" y="677"/>
      <point x="1368" y="701"/>
      <point x="1402" y="701" type="curve" smooth="yes"/>
      <point x="1436" y="701"/>
      <point x="1462" y="677"/>
      <point x="1462" y="643" type="curve" smooth="yes"/>
      <point x="1462" y="609"/>
      <point x="1436" y="585"/>
    </contour>
    <contour>
      <point x="1402" y="521" type="curve" smooth="yes"/>
      <point x="1478" y="521"/>
      <point x="1534" y="573"/>
      <point x="1534" y="643" type="curve" smooth="yes"/>
      <point x="1534" y="713"/>
      <point x="1478" y="765"/>
      <point x="1402" y="765" type="curve" smooth="yes"/>
      <point x="1326" y="765"/>
      <point x="1270" y="713"/>
      <point x="1270" y="643" type="curve" smooth="yes"/>
      <point x="1270" y="573"/>
      <point x="1326" y="521"/>
    </contour>
    <contour>
      <point x="514" y="0" type="line"/>
      <point x="678" y="0" type="line"/>
      <point x="757" y="255" type="line"/>
      <point x="766" y="392" type="line"/>
      <point x="784" y="392" type="line"/>
      <point x="887" y="0" type="line"/>
      <point x="1038" y="0" type="line"/>
      <point x="1220" y="516" type="line"/>
      <point x="1120" y="516" type="line"/>
      <point x="1070" y="304" type="line"/>
      <point x="1051" y="116" type="line"/>
      <point x="1029" y="116" type="line"/>
      <point x="916" y="516" type="line"/>
      <point x="762" y="516" type="line"/>
      <point x="690" y="280" type="line"/>
      <point x="680" y="116" type="line"/>
      <point x="658" y="116" type="line"/>
      <point x="560" y="516" type="line"/>
      <point x="338" y="516" type="line"/>
    </contour>
    <contour>
      <point x="314" y="444" type="line"/>
      <point x="418" y="428" type="line"/>
      <point x="538" y="428" type="line"/>
      <point x="638" y="444" type="line"/>
      <point x="638" y="516" type="line"/>
      <point x="314" y="516" type="line"/>
    </contour>
    <contour>
      <point x="682" y="444" type="line"/>
      <point x="798" y="432" type="line"/>
      <point x="908" y="432" type="line"/>
      <point x="996" y="444" type="line"/>
      <point x="996" y="516" type="line"/>
      <point x="682" y="516" type="line"/>
    </contour>
    <contour>
      <point x="1040" y="444" type="line"/>
      <point x="1128" y="428" type="line"/>
      <point x="1156" y="428" type="line"/>
      <point x="1240" y="444" type="line"/>
      <point x="1240" y="516" type="line"/>
      <point x="1040" y="516" type="line"/>
    </contour>
  </outline>
</glyph>
<glyph name="uni001E" format="2">
  <advance width="1498"/>
  <unicode hex="001E"/>
  <outline>
    <contour>
      <point x="613" y="-232" type="curve" smooth="yes"/>
      <point x="748" y="-232"/>
      <point x="826" y="-140"/>
      <point x="873" y="-12" type="curve" smooth="yes"/>
      <point x="1065" y="516" type="line"/>
      <point x="965" y="516" type="line"/>
      <point x="909" y="308" type="line"/>
      <point x="859" y="42" type="line"/>
      <point x="829" y="42" type="line"/>
      <point x="805" y="-16" type="line" smooth="yes"/>
      <point x="777" y="-84"/>
      <point x="715" y="-140"/>
      <point x="687" y="-168" type="curve"/>
      <point x="631" y="-168" type="line"/>
      <point x="667" y="-188" type="line"/>
      <point x="653" y="-140" type="line" smooth="yes"/>
      <point x="642" y="-103"/>
      <point x="613" y="-67"/>
      <point x="566" y="-67" type="curve" smooth="yes"/>
      <point x="510" y="-67"/>
      <point x="488" y="-99"/>
      <point x="477" y="-152" type="curve"/>
      <point x="490" y="-201"/>
      <point x="531" y="-232"/>
    </contour>
    <contour>
      <point x="752" y="-146" type="line"/>
      <point x="886" y="83" type="line"/>
      <point x="835" y="82" type="line"/>
      <point x="729" y="516" type="line"/>
      <point x="483" y="516" type="line"/>
    </contour>
    <contour>
      <point x="1209" y="521" type="curve" smooth="yes"/>
      <point x="1259" y="521"/>
      <point x="1299" y="561"/>
      <point x="1299" y="611" type="curve" smooth="yes"/>
      <point x="1299" y="661"/>
      <point x="1259" y="701"/>
      <point x="1209" y="701" type="curve" smooth="yes"/>
      <point x="1159" y="701"/>
      <point x="1119" y="661"/>
      <point x="1119" y="611" type="curve" smooth="yes"/>
      <point x="1119" y="561"/>
      <point x="1159" y="521"/>
    </contour>
    <contour>
      <point x="1451" y="521" type="curve" smooth="yes"/>
      <point x="1501" y="521"/>
      <point x="1541" y="561"/>
      <point x="1541" y="611" type="curve" smooth="yes"/>
      <point x="1541" y="661"/>
      <point x="1501" y="701"/>
      <point x="1451" y="701" type="curve" smooth="yes"/>
      <point x="1401" y="701"/>
      <point x="1361" y="661"/>
      <point x="1361" y="611" type="curve" smooth="yes"/>
      <point x="1361" y="561"/>
      <point x="1401" y="521"/>
    </contour>
    <contour>
      <point x="455" y="444" type="line"/>
      <point x="555" y="428" type="line"/>
      <point x="725" y="428" type="line"/>
      <point x="821" y="444" type="line"/>
      <point x="821" y="516" type="line"/>
      <point x="455" y="516" type="line"/>
    </contour>
    <contour>
      <point x="873" y="444" type="line"/>
      <point x="969" y="428" type="line"/>
      <point x="989" y="428" type="line"/>
      <point x="1089" y="444" type="line"/>
      <point x="1089" y="516" type="line"/>
      <point x="873" y="516" type="line"/>
    </contour>
  </outline>
</glyph>
<glyph name="uni001E" format="2">
  <advance width="762"/>
  <unicode hex="001E"/>
  <outline>
    <contour>
      <point x="633" y="561" type="curve" smooth="yes"/>
      <point x="692" y="561"/>
      <point x="732" y="600"/>
      <point x="732" y="655" type="curve" smooth="yes"/>
      <point x="732" y="710"/>
      <point x="692" y="749"/>
      <point x="633" y="749" type="curve" smooth="yes"/>
      <point x="574" y="749"/>
      <point x="533" y="710"/>
      <point x="533" y="655" type="curve" smooth="yes"/>
      <point x="533" y="600"/>
      <point x="574" y="561"/>
    </contour>
    <contour>
      <point x="24" y="0" type="line"/>
      <point x="520" y="0" type="line"/>
      <point x="528" y="180" type="line"/>
      <point x="440" y="180" type="line"/>
      <point x="400" y="20" type="line"/>
      <point x="428" y="70" type="line"/>
      <point x="331" y="70" type="line"/>
      <point x="239" y="50" type="line"/>
      <point x="239" y="75" type="line"/>
      <point x="233" y="57" type="line"/>
      <point x="520" y="448" type="line"/>
      <point x="520" y="516" type="line"/>
      <point x="44" y="516" type="line"/>
      <point x="36" y="344" type="line"/>
      <point x="124" y="344" type="line"/>
      <point x="164" y="496" type="line"/>
      <point x="136" y="446" type="line"/>
      <point x="222" y="446" type="line"/>
      <point x="304" y="466" type="line"/>
      <point x="304" y="441" type="line"/>
      <point x="310" y="459" type="line"/>
      <point x="24" y="68" type="line"/>
    </contour>
  </outline>
</glyph>
